<?xml version="1.0" encoding="UTF-8"?>

<svg version="1.2" baseProfile="tiny" viewBox="0 0 21590 27940" preserveAspectRatio="xMidYMid" fill-rule="evenodd" clip-path="url(#presentation_clip_path)" stroke-width="28.222" stroke-linejoin="round" xmlns="http://www.w3.org/2000/svg" xmlns:xlink="http://www.w3.org/1999/xlink" xmlns:draw="urn:oasis:names:tc:opendocument:xmlns:drawing:1.0" xmlns:presentation="urn:oasis:names:tc:opendocument:xmlns:presentation:1.0" xmlns:smil="urn:oasis:names:tc:opendocument:xmlns:smil-compatible:1.0" xmlns:anim="urn:oasis:names:tc:opendocument:xmlns:animation:1.0" xml:space="preserve">
 <defs>
  <clipPath id="presentation_clip_path" clipPathUnits="userSpaceOnUse">
   <rect x="0" y="0" width="21590" height="27940"/>
  </clipPath>
 </defs>
 <g id="id2" class="Master_Slide" clip-path="url(#presentation_clip_path)">
  <g id="bg-id2" visibility="visible" class="Background">
   <rect fill="none" stroke="none" x="0" y="0" width="21590" height="27940"/>
  </g>
  <g id="bo-id2" visibility="visible" class="BackgroundObjects"/>
 </g>
 <g id="id1" class="Slide" visibility="visible" clip-path="url(#presentation_clip_path)">
  <g class="com.sun.star.drawing.CustomShape">
   <g>
    <path fill="rgb(192,192,192)" stroke="none" d="M 7914,16852 L 6374,16852 6374,13772 9454,13772 9454,16852 7914,16852 Z"/>
    <rect fill="none" stroke="none" x="6374" y="13772" width="3081" height="3081"/>
    <rect fill="none" stroke="none" x="6374" y="13772" width="3081" height="3081"/>
   </g>
  </g>
  <g class="com.sun.star.drawing.PolyPolygonShape">
   <g>
    <path fill="none" stroke="rgb(0,0,0)" d="M 7555,14916 L 6969,14916 6969,15079 7091,15079 7134,15080 7151,15082 7167,15085 7181,15089 7193,15094 7198,15097 7203,15100 7207,15104 7211,15109 7215,15113 7218,15119 7224,15130 7228,15144 7232,15160 7234,15178 7236,15199 7237,15248 7237,16057 7237,16193 7237,16217 7235,16239 7232,16258 7228,16275 7222,16290 7218,16297 7214,16303 7209,16309 7204,16314 7198,16319 7191,16323 7176,16331 7159,16337 7138,16342 7114,16346 7056,16351 6983,16352 6969,16352 6969,16474 7826,16474 7826,16352 7813,16352 7739,16351 7680,16346 7656,16342 7635,16337 7617,16331 7602,16323 7595,16319 7589,16314 7584,16309 7579,16303 7575,16297 7571,16290 7565,16275 7560,16258 7557,16239 7556,16217 7555,16193 7555,16057 7555,15705 7556,15644 7560,15584 7565,15527 7572,15474 7581,15425 7591,15380 7603,15342 7610,15324 7616,15309 7631,15281 7647,15254 7664,15229 7684,15204 7704,15182 7726,15161 7749,15141 7773,15123 7798,15107 7823,15093 7850,15081 7876,15070 7903,15062 7931,15056 7958,15053 7986,15052 8002,15052 8019,15054 8036,15057 8053,15061 8070,15065 8087,15071 8104,15078 8120,15085 8136,15094 8151,15103 8165,15113 8179,15123 8193,15134 8205,15146 8216,15158 8226,15170 8235,15184 8244,15198 8252,15214 8259,15230 8272,15266 8282,15305 8290,15349 8296,15397 8299,15450 8301,15509 8301,16057 8301,16193 8300,16217 8299,16239 8296,16258 8291,16275 8285,16290 8281,16297 8277,16303 8272,16309 8267,16314 8261,16319 8254,16323 8239,16331 8221,16337 8200,16342 8176,16346 8117,16351 8043,16352 8030,16352 8030,16474 8886,16474 8886,16352 8873,16352 8800,16351 8742,16346 8718,16342 8697,16337 8680,16331 8665,16323 8658,16319 8652,16314 8647,16309 8642,16303 8638,16297 8634,16290 8628,16275 8624,16258 8621,16239 8619,16217 8619,16193 8619,16057 8619,15526 8616,15373 8612,15316 8606,15267 8597,15225 8585,15186 8568,15147 8548,15106 8531,15076 8512,15048 8491,15021 8469,14996 8444,14973 8419,14952 8391,14932 8362,14914 8332,14899 8301,14885 8268,14873 8234,14863 8200,14855 8164,14850 8128,14846 8091,14845 8050,14846 8011,14850 7973,14856 7936,14864 7900,14875 7865,14889 7831,14905 7798,14924 7765,14945 7733,14969 7702,14996 7671,15025 7642,15057 7612,15092 7555,15170 7555,14916"/>
   </g>
  </g>
 </g>
</svg>