<?xml version="1.0" encoding="UTF-8"?>
<!DOCTYPE svg PUBLIC "-//W3C//DTD SVG 1.1//EN" "http://www.w3.org/Graphics/SVG/1.1/DTD/svg11.dtd"><svg version="1.1" viewBox="0 0 29700 21000" preserveAspectRatio="xMidYMid" fill-rule="evenodd" xmlns="http://www.w3.org/2000/svg" xmlns:xlink="http://www.w3.org/1999/xlink"><g visibility="visible" id="Default"><desc>Master slide</desc><g style="stroke:none;fill:none"><rect x="986" y="986" width="27730" height="19030"/></g></g><g visibility="visible" id="page1"><desc>Slide</desc><g><desc>Drawing</desc><g><g style="stroke:rgb(0,0,0);fill:none"><path style="fill:none" d="M 7875,15684 L 7828,15598 7724,15408"/></g><g/></g></g><g><desc>Drawing</desc><g><g style="stroke:rgb(0,0,0);fill:none"><path style="fill:none" d="M 6887,12183 L 6900,11922 5904,12405"/></g><g/></g></g><g><desc>Drawing</desc><g><g style="stroke:rgb(0,0,0);fill:none"><path style="fill:none" d="M 4744,11473 L 4715,11498 4686,11530 4630,11612 4576,11717 4525,11838 4480,11973 4442,12118 4411,12268 4388,12421 4376,12570 4376,12714 4388,12849 4415,12968 4434,13021 4456,13070 4484,13114 4515,13151 4551,13181 4592,13204 4637,13221 4688,13229 4885,13238 5056,13235 5206,13218 5273,13206 5337,13190 5397,13173 5455,13152 5564,13104 5667,13047 5769,12984 5779,12945 5780,12908 5774,12870 5762,12833 5744,12797 5720,12760 5656,12687 5576,12614 5482,12538 5275,12377 5064,12197 4968,12099 4884,11993 4816,11877 4788,11816 4766,11754 4751,11687 4741,11619 4739,11548 4744,11473"/></g><g/></g></g><g><desc>Drawing</desc><g><g style="stroke:rgb(0,0,0);fill:none"><path style="fill:none" d="M 5634,10597 L 6113,10173 6663,9667 7144,9191 7316,9001 7377,8924 7419,8861 7520,8691 7593,8546 7643,8422 7660,8366 7673,8315 7683,8267 7689,8221 7696,8135 7700,7971 7731,7641 7790,7250 7968,6389 8075,5969 8184,5591 8293,5279 8346,5156 8395,5060 8429,4999 8459,4937 8515,4813 8570,4687 8601,4626 8635,4565 8674,4510 8709,4456 8775,4349 8841,4243 8914,4133 9272,3731 9661,3374 10079,3064 10541,2747"/></g><g/></g></g><g><desc>Drawing</desc><g><g style="stroke:rgb(0,0,0);fill:none"><path style="fill:none" d="M 10968,2329 L 11147,2135"/></g><g/></g></g><g><desc>Drawing</desc><g><g style="stroke:rgb(0,0,0);fill:none"><path style="fill:none" d="M 13325,2380 L 13575,2447 14067,2597 14538,2805 14982,3064 15400,3374 15790,3731 16147,4133 16261,4301 16367,4500 16465,4726 16557,4976 16724,5534 16877,6148 17171,7438 17330,8061 17506,8635 17592,8795 17692,8952 17802,9104 17923,9251 18192,9534 18486,9801 18796,10054 19110,10293 19712,10736"/></g><g/></g></g><g><desc>Drawing</desc><g><g style="stroke:rgb(0,0,0);fill:none"><path style="fill:none" d="M 20507,11412 L 20527,11451 20541,11492 20549,11534 20552,11578 20551,11622 20546,11668 20522,11762 20485,11860 20437,11962 20318,12171 20186,12387 20061,12605 20009,12714 19966,12822 19937,12929 19921,13033 19920,13082 19923,13126 19928,13165 19938,13199 19950,13228 19966,13252 19985,13274 20006,13290 20029,13302 20054,13312 20081,13316 20109,13319 20139,13317 20169,13312 20234,13296 20300,13269 20366,13234 20430,13192 20490,13144 20546,13092 20594,13038 20632,12983 20648,12955 20660,12928 20708,12791 20756,12607 20794,12392 20808,12278 20814,12161 20814,12043 20806,11926 20788,11811 20760,11701 20719,11599 20667,11504 20634,11460 20598,11420 20559,11382 20515,11347"/></g><g/></g></g><g><desc>Drawing</desc><g><g style="stroke:rgb(0,0,0);fill:none"><path style="fill:none" d="M 19799,12622 L 18214,12003"/></g><g/></g></g><g><desc>Drawing</desc><g><g style="stroke:rgb(0,0,0);fill:none"><path style="fill:none" d="M 17486,15398 L 17452,15477 17386,15621 17339,15713"/></g><g/></g></g><g><desc>Drawing</desc><g><g style="stroke:rgb(0,0,0);fill:none"><path style="fill:none" d="M 17607,14925 L 17607,14925"/></g><g/></g></g><g><desc>Drawing</desc><g><g style="stroke:rgb(0,0,0);fill:none"><path style="fill:none" d="M 8074,11952 L 8147,11666 8299,11217 8489,10792 8717,10393 8979,10021 9275,9680 9600,9371 9955,9097 10045,9044 10130,9000 10215,8955 10305,8902"/></g><g/></g></g><g><desc>Drawing</desc><g><g style="stroke:rgb(0,0,0);fill:none"><path style="fill:none" d="M 14243,8569 L 14808,8858 15189,9097 15543,9371 15627,9456"/></g><g/></g></g><g><desc>Drawing</desc><g><g style="stroke:rgb(0,0,0);fill:none"><path style="fill:none" d="M 17052,15014 L 17036,15110 16973,15383 16935,15501 16894,15603"/></g><g/></g></g><g><desc>Drawing</desc><g><g style="stroke:rgb(0,0,0);fill:none"><path style="fill:none" d="M 13123,17966 L 12571,17981 12003,17944"/></g><g/></g></g><g><desc>Drawing</desc><g><g style="stroke:rgb(0,0,0);fill:none"><path style="fill:none" d="M 9142,15524 L 9441,15538 9726,15577 9999,15638 10255,15719 10497,15817 10722,15927 10931,16049 11121,16177 11293,16311 11447,16446 11581,16580 11696,16709 11788,16831 11859,16942 11908,17041 11923,17084 11934,17123 11976,17379 11993,17523 12002,17673 11999,17828 11993,17906 11982,17983 11965,18061 11944,18136 11916,18212 11882,18285 11880,18286 11875,18287 11862,18289 11813,18293 11636,18300 11021,18309 9176,18313 7337,18297 6728,18282 6557,18273 6511,18268 6498,18266 6495,18264 6494,18264 6493,18263 6443,18125 6407,17994 6384,17872 6369,17763 6362,17668 6358,17590 6356,17533 6354,17513 6352,17498 6338,17310 6352,17123 6393,16943 6461,16770 6553,16604 6668,16447 6806,16300 6965,16163 7144,16037 7341,15924 7556,15822 7788,15734 8033,15661 8293,15602 8566,15559 8849,15533 9142,15524"/></g><g/></g></g><g><desc>Drawing</desc><g><g style="stroke:rgb(0,0,0);fill:none"><path style="fill:none" d="M 15984,15503 L 15685,15517 15400,15556 15128,15617 14871,15698 14630,15796 14405,15906 14196,16028 14005,16156 13833,16290 13679,16425 13545,16559 13431,16688 13338,16810 13267,16921 13218,17020 13202,17063 13192,17102 13150,17358 13133,17502 13124,17652 13127,17807 13133,17885 13145,17962 13161,18040 13183,18115 13211,18191 13244,18264 13247,18265 13250,18266 13264,18268 13313,18272 13490,18279 14106,18288 15950,18292 17789,18276 18398,18261 18569,18252 18616,18247 18628,18245 18632,18243 18633,18243 18633,18242 18684,18104 18719,17973 18743,17851 18757,17742 18765,17647 18768,17569 18770,17512 18772,17492 18774,17477 18788,17289 18774,17102 18733,16922 18665,16749 18573,16583 18458,16426 18320,16279 18160,16142 17982,16016 17785,15903 17570,15801 17338,15713 17093,15640 16833,15581 16560,15538 16277,15512 15984,15503"/></g><g/></g></g><g><desc>Drawing</desc><g><g style="stroke:rgb(0,0,0);fill:none"><path style="fill:none" d="M 10877,8980 C 10823,8983 10836,8988 10781,8992 10727,8988 10672,8985 10617,8981 10564,8971 10511,8961 10457,8951 10407,8934 10356,8918 10305,8902 10256,8879 10208,8857 10159,8834 10113,8806 10068,8778 10022,8750 9979,8716 9935,8683 9892,8648 9852,8610 9812,8571 9772,8532 9735,8488 9698,8444 9661,8401 9628,8352 9594,8304 9561,8256 9531,8204 9502,8151 9471,8098 9446,8042 9420,7985 9394,7929 9372,7869 9351,7809 9329,7749 9312,7685 9295,7621 9277,7558 9265,7491 9252,7425 9240,7358 9232,7289 9225,7219 9217,7150 9215,7079 9212,7007 9209,6935 9212,6863 9215,6791 9217,6720 9225,6651 9232,6580 9240,6511 9252,6445 9265,6378 9277,6312 9295,6248 9312,6185 9329,6121 9351,6061 9372,6001 9394,5941 9420,5885 9446,5828 9471,5771 9502,5719 9531,5666 9561,5613 9594,5565 9628,5517 9661,5469 9698,5425 9735,5382 9772,5338 L 9892,5221 C 9935,5187 9979,5154 10022,5120 10068,5092 10113,5063 10159,5036 10208,5013 10256,4991 10305,4968 10356,4952 10407,4935 10457,4919 10511,4908 10564,4898 10617,4888 10672,4884 10727,4882 10781,4878 10836,4882 10891,4884 10946,4888 10999,4898 11052,4908 11105,4919 11156,4935 11207,4952 11258,4968 11306,4991 11354,5013 11403,5036 11449,5063 11496,5092 11541,5120 11584,5154 11628,5187 11671,5221 11712,5260 11751,5299 11792,5338 11829,5382 11866,5425 11903,5469 11936,5517 11969,5565 12003,5613 12033,5666 12062,5719 12092,5771 12118,5828 12143,5885 12169,5941 12191,6001 12213,6061 12234,6121 12251,6185 12269,6248 12285,6312 12298,6378 12311,6445 12323,6511 12332,6580 12339,6651 12346,6720 12349,6791 12352,6863 12355,6935 12352,7007 12349,7079 12346,7150 12339,7219 12332,7289 12323,7358 12311,7425 12298,7491 12285,7558 12269,7621 12251,7685 12234,7749 12213,7809 12191,7869 12169,7929 12143,7985 12118,8043 12092,8099"/></g><g/></g></g><g><desc>Drawing</desc><g><g style="stroke:rgb(0,0,0);fill:none"><path style="fill:none" d="M 12928,8099 C 12896,8062 12791,7970 12759,7933 12731,7893 12703,7853 12675,7812 12652,7770 12628,7727 12605,7684 12587,7639 12568,7594 12550,7548 12536,7501 12522,7454 12508,7406 12500,7357 12492,7308 12483,7259 12481,7208 12478,7156 12475,7106 12478,7055 12481,7003 12483,6952 12492,6903 12500,6854 12508,6805 12522,6757 12536,6710 12550,6663 12568,6617 12587,6572 12605,6527 12628,6485 12652,6441 12675,6399 12703,6358 12731,6318 12759,6278 12791,6241 12823,6203 12855,6166 12891,6132 12927,6098 12964,6063 13004,6032 13043,6001 13083,5970 13126,5942 13171,5914 13214,5887 13260,5863 13307,5840 13353,5816 13403,5795 13453,5775 13503,5755 13556,5739 13608,5723 13661,5707 13716,5696 13771,5684 13826,5672 13883,5664 13940,5658 13998,5650 14057,5648 14117,5646 14176,5643 14235,5646 14295,5648 14354,5650 14411,5658 14468,5664 14525,5672 14581,5684 14636,5696 14691,5707 14743,5723 14796,5739 14848,5755 14898,5775 14948,5795 14998,5816 15044,5840 15091,5863 15138,5887 15181,5914 15225,5942 15268,5970 L 15388,6063 C 15424,6098 15460,6132 15497,6166 15528,6203 15561,6241 15593,6278 15621,6318 15649,6358 15677,6399 15700,6441 15723,6485 15747,6527 15766,6572 15784,6617 15802,6663 15816,6710 15830,6757 15844,6805 15852,6854 15861,6903 15869,6952 15872,7003 15874,7055 15877,7106 15874,7156 15872,7208 15869,7259 15861,7308 15852,7357 15844,7406 15830,7454 15816,7501 15802,7548 15784,7594 15766,7639 15747,7684 15723,7727 15700,7770 15677,7812 15649,7853 15621,7893 15593,7933 15561,7970 15528,8008 15497,8045 15460,8080 15424,8114 15388,8148 15348,8180 15308,8211 15268,8241 15225,8269 15181,8297 15138,8325 15091,8349 15044,8373 14998,8397 L 14848,8457 C 14796,8473 14743,8489 14691,8505 14636,8516 14581,8528 14525,8540 14468,8548 14411,8554 14354,8562 14295,8564 14235,8566 14176,8569 14117,8566 14009,8572 13950,8569"/></g><g/></g></g><g><desc>Drawing</desc><g><g style="stroke:rgb(0,0,0);fill:none"><path style="fill:none" d="M 11817,6459 L 11869,6463 11918,6473 11965,6489 12012,6513 12054,6541 12095,6576 12132,6616 12167,6660 12199,6710 12227,6764 12251,6822 12271,6883 12287,6948 12299,7016 12306,7086 12309,7160 12306,7234 12299,7304 12287,7373 12271,7438 12251,7499 12227,7557 12199,7612 12167,7660 12132,7706 12095,7745 12054,7779 12012,7809 11965,7832 11918,7849 11869,7859 11817,7863 11765,7859 11715,7849 11668,7832 11622,7809 11580,7779 11539,7745 11501,7706 11466,7660 11435,7612 11407,7557 11383,7499 11363,7438 11346,7373 11335,7304 11328,7234 11325,7160 11328,7086 11335,7016 11346,6948 11363,6883 11383,6822 11407,6764 11435,6710 11466,6660 11501,6616 11539,6576 11580,6541 11622,6513 11668,6489 11715,6473 11765,6463 11817,6459"/></g><g/></g></g><g><desc>Drawing</desc><g><g style="stroke:rgb(0,0,0);fill:none"><path style="fill:none" d="M 11818,6912 L 11835,6913 11853,6917 11869,6923 11885,6931 11900,6942 11914,6954 11927,6967 11940,6983 11950,7001 11960,7020 11968,7040 11976,7061 11981,7085 11985,7109 11988,7134 11988,7160 11988,7186 11985,7212 11981,7236 11976,7259 11968,7280 11960,7301 11950,7320 11940,7337 11927,7354 11914,7368 11900,7380 11885,7390 11869,7398 11853,7405 11835,7408 11818,7409 11800,7408 11783,7405 11766,7398 11750,7390 11736,7380 11722,7368 11709,7354 11697,7337 11686,7320 11677,7301 11668,7280 11661,7259 11655,7236 11652,7212 11649,7186 11648,7160 11649,7134 11652,7109 11655,7085 11661,7061 11668,7040 11677,7020 11686,7001 11697,6983 11709,6967 11722,6954 11736,6942 11750,6931 11766,6923 11783,6917 11800,6913 11818,6912"/></g><g/></g></g><g><desc>Drawing</desc><g><g style="stroke:rgb(0,0,0);fill:none"><path style="fill:none" d="M 13017,6414 L 13069,6418 13118,6428 13165,6444 13212,6468 13254,6496 13295,6531 13332,6571 13367,6615 13399,6665 13427,6719 13451,6777 13471,6838 13487,6903 13499,6971 13506,7041 13509,7115 13506,7189 13499,7259 13487,7328 13471,7393 13451,7454 13427,7512 13399,7567 13367,7615 13332,7661 13295,7700 13254,7734 13212,7764 13165,7787 13118,7804 13069,7814 13017,7818 12965,7814 12915,7804 12868,7787 12822,7764 12780,7734 12739,7700 12701,7661 12666,7615 12635,7567 12607,7512 12583,7454 12563,7393 12546,7328 12535,7259 12528,7189 12525,7115 12528,7041 12535,6971 12546,6903 12563,6838 12583,6777 12607,6719 12635,6665 12666,6615 12701,6571 12739,6531 12780,6496 12822,6468 12868,6444 12915,6428 12965,6418 13017,6414"/></g><g/></g></g><g><desc>Drawing</desc><g><g style="stroke:rgb(0,0,0);fill:none"><path style="fill:none" d="M 13018,6867 L 13035,6868 13053,6872 13069,6878 13085,6886 13100,6897 13114,6909 13127,6922 13140,6938 13150,6956 13160,6975 13168,6995 13176,7016 13181,7040 13185,7064 13188,7089 13188,7115 13188,7141 13185,7167 13181,7191 13176,7214 13168,7235 13160,7256 13150,7275 13140,7292 13127,7309 13114,7323 13100,7335 13085,7345 13069,7353 13053,7360 13035,7363 13018,7364 13000,7363 12983,7360 12966,7353 12950,7345 12936,7335 12922,7323 12909,7309 12897,7292 12886,7275 12877,7256 12868,7235 12861,7214 12855,7191 12852,7167 12849,7141 12848,7115 12849,7089 12852,7064 12855,7040 12861,7016 12868,6995 12877,6975 12886,6956 12897,6938 12909,6922 12922,6909 12936,6897 12950,6886 12966,6878 12983,6872 13000,6868 13018,6867"/></g><g/></g></g><g><desc>Drawing</desc><g><g style="stroke:rgb(0,0,0);fill:none"><path style="fill:none" d="M 20433,13186 L 20375,14613 19913,14613 19620,8327 19622,8292 19626,8258 19635,8226 19646,8195 19660,8164 19676,8135 19716,8081 19765,8032 19821,7988 19884,7948 19951,7913 20023,7883 20097,7857 20172,7836 20247,7819 20320,7807 20392,7799 20460,7795 20522,7796 20583,7801 20647,7812 20711,7827 20775,7848 20839,7872 20902,7899 20961,7931 21017,7965 21068,8002 21114,8040 21155,8082 21187,8124 21211,8169 21220,8191 21227,8213 21230,8236 21232,8258 21231,8281 21227,8304 21071,8306 20924,8305 20776,8304 20621,8307 20358,8724 20636,9088 21227,9072 21231,9104 21233,9136 21232,9165 21228,9194 21222,9222 21213,9248 21201,9274 21187,9298 21154,9344 21113,9387 21067,9427 21015,9464 20904,9533 20791,9599 20683,9662 20635,9694 20593,9728 20483,11858"/></g><g/></g></g><g><desc>Drawing</desc><g><g style="stroke:rgb(0,0,0);fill:none"><path style="fill:none" d="M 4744,11473 L 4489,9935 4037,9216 5715,8920 5514,9782 6072,13596 5163,13756 5094,13239"/></g><g/></g></g><g><desc>Drawing</desc><g><g style="stroke:rgb(0,0,0);fill:none"><path style="fill:none" d="M 4244,7357 L 4832,7254 5143,9019 4555,9124 4244,7357"/></g><g/></g></g><g><desc>Drawing</desc><g><g style="stroke:rgb(0,0,0);fill:none"><path style="fill:none" d="M 4188,6103 L 3934,5733 3907,5582 4419,6063 4635,7289 4403,7331 4188,6103"/></g><g/></g></g><g><desc>Drawing</desc><g><g style="stroke:rgb(0,0,0);fill:none"><path style="fill:none" d="M 5450,13705 L 5777,13647 5937,14556 5937,14700 5914,14861 5814,15230 5528,16100 5409,16576 5371,16819 5353,17061 5358,17304 5392,17544 5459,17780 5563,18010 5708,18232 5898,18445 6139,18648 6433,18838 6786,19016 7201,19176 8237,19444 9576,19630 11251,19721 15747,19563 15751,19528 15758,19495 15768,19463 15782,19433 15799,19404 15818,19376 15842,19351 15867,19327 15926,19281 15992,19242 16065,19208 16142,19178 16223,19152 16305,19131 16467,19100 16616,19084 16737,19078 16737,20267 16650,20277 16564,20281 16479,20278 16396,20270 16315,20256 16237,20237 16164,20213 16093,20184 16029,20151 15970,20114 15916,20073 15870,20028 15831,19981 15801,19930 15778,19877 15770,19849 15765,19821 13247,19987 11140,20014 9412,19920 8026,19718 6949,19424 6516,19248 6147,19054 5838,18847 5584,18625 5382,18393 5226,18151 5114,17902 5040,17647 4999,17390 4989,17130 5004,16871 5040,16615 5158,16117 5458,15237 5570,14885 5602,14738 5611,14613 5450,13705"/></g><g/></g></g><g><desc>Drawing</desc><g><g style="stroke:rgb(0,0,0);fill:none"><path style="fill:none" d="M 17080,20062 L 16737,20062 16737,19913 17080,19913 17090,19919 17100,19927 17107,19934 17113,19943 17117,19953 17121,19962 17122,19972 17122,19983 17121,19993 17119,20004 17115,20015 17110,20025 17104,20035 17097,20044 17089,20053 17080,20062"/></g><g/></g></g><g><desc>Drawing</desc><g><g style="stroke:rgb(0,0,0);fill:none"><path style="fill:none" d="M 17080,19411 L 16737,19411 16737,19262 17080,19262 17090,19268 17100,19276 17107,19283 17113,19292 17117,19302 17121,19311 17122,19321 17122,19332 17121,19342 17119,19353 17115,19364 17110,19374 17104,19384 17097,19393 17089,19402 17080,19411"/></g><g/></g></g><g><desc>Drawing</desc><g><g style="stroke:rgb(0,0,0);fill:none"><path style="fill:none" d="M 3632,3540 L 3671,3584 3703,3631 3727,3681 3745,3733 3757,3786 3764,3842 3761,3958 3744,4080 3713,4205 3632,4463 3551,4720 3520,4846 3502,4968 3500,5084 3506,5139 3518,5193 3536,5244 3561,5294 3592,5341 3632,5386"/></g><g/></g></g><g><desc>Drawing</desc><g><g style="stroke:rgb(0,0,0);fill:none"><path style="fill:none" d="M 3941,2605 L 3980,2651 4012,2703 4038,2760 4057,2822 4071,2888 4080,2958 4081,3110 4068,3273 4044,3446 3976,3806 3908,4165 3884,4338 3871,4501 3874,4653 3882,4723 3895,4789 3914,4851 3940,4908 3973,4960 4012,5006"/></g><g/></g></g><g><desc>Drawing</desc><g><g style="stroke:rgb(0,0,0);fill:none"><path style="fill:none" d="M 4289,3540 L 4328,3584 4361,3631 4387,3681 4408,3733 4423,3786 4432,3842 4439,3958 4431,4080 4412,4205 4355,4463 4299,4720 4279,4846 4271,4968 4277,5084 4288,5139 4302,5193 4323,5244 4349,5294 4382,5341 4421,5386"/></g><g/></g></g><g><desc>Drawing</desc><g><g style="stroke:rgb(0,0,0);fill:none"><path style="fill:none" d="M 7724,15408 L 7472,14897 7275,14454 7128,14059 7023,13695 6953,13344 6912,12987 6892,12606 6887,12183 8407,11889 9874,11527 11287,11109 12645,10648 15191,9650 17507,8635 17542,9165 17605,9647 17786,10492 18181,11924 18246,12271 18284,12629 18288,13004 18252,13405 18167,13838 18029,14311 17828,14832 17560,15408 17534,15409 17509,15407 17485,15403 17462,15396 17439,15387 17417,15375 17374,15347 17333,15313 17294,15274 17217,15188 17141,15101 17102,15060 17062,15024 17020,14993 16976,14968 16953,14959 16930,14953 16905,14949 16880,14947 16418,15408 15957,14947 15495,15408 14758,14953 14323,15893 13664,15331 13018,16104 12499,15683 12003,16398 11446,15524 10829,15879 10142,15107 9553,15524 9033,15191 8294,15603 7724,15408"/></g><g/></g></g><g><desc>Drawing</desc><g><g style="stroke:rgb(0,0,0);fill:none"><path style="fill:none" d="M 10882,8772 L 10898,8699 10930,8629 10976,8563 11036,8502 11108,8444 11191,8392 11388,8298 11618,8221 11874,8163 12146,8123 12426,8103 12708,8102 12982,8121 13239,8162 13473,8224 13675,8307 13761,8358 13835,8413 13899,8475 13949,8542 13984,8616 14004,8695 14016,8858 14002,9015 13967,9166 13912,9312 13839,9452 13750,9587 13649,9716 13537,9840 13291,10069 13030,10276 12542,10620 12015,10268 11728,10064 11452,9840 11325,9722 11209,9600 11106,9472 11019,9340 10951,9205 10903,9064 10888,8993 10879,8920 10877,8847 10882,8772"/></g><g/></g></g><g><desc>Drawing</desc><g><g style="stroke:rgb(0,0,0);fill:none"><path style="fill:none" d="M 15263,10794 L 15287,10795 15310,10799 15332,10804 15354,10812 15374,10821 15393,10833 15411,10846 15427,10860 15441,10877 15455,10894 15466,10913 15475,10934 15483,10955 15488,10977 15492,11001 15493,11025 15492,11049 15488,11073 15483,11095 15475,11116 15466,11137 15455,11156 15441,11173 15427,11190 15411,11204 15393,11217 15374,11229 15354,11238 15332,11246 15310,11251 15287,11255 15263,11256 15239,11255 15216,11251 15194,11246 15172,11238 15152,11229 15133,11217 15115,11204 15099,11190 15085,11173 15071,11156 15060,11137 15051,11116 15043,11095 15038,11073 15034,11049 15033,11025 15034,11001 15038,10977 15043,10955 15051,10934 15060,10913 15071,10894 15085,10877 15099,10860 15115,10846 15133,10833 15152,10821 15172,10812 15194,10804 15216,10799 15239,10795 15263,10794"/></g><g/></g></g><g><desc>Drawing</desc><g><g style="stroke:rgb(0,0,0);fill:none"><path style="fill:none" d="M 16647,11716 L 16671,11717 16694,11721 16716,11726 16738,11734 16758,11743 16777,11754 16795,11768 16811,11782 16825,11798 16839,11816 16850,11835 16859,11855 16867,11877 16872,11899 16876,11922 16877,11946 16876,11970 16872,11993 16867,12015 16859,12037 16850,12057 16839,12076 16825,12094 16811,12110 16795,12124 16777,12138 16758,12149 16738,12158 16716,12166 16694,12171 16671,12175 16647,12176 16623,12175 16600,12171 16578,12166 16556,12158 16536,12149 16517,12138 16499,12124 16483,12110 16469,12094 16455,12076 16444,12057 16435,12037 16427,12015 16422,11993 16418,11970 16417,11946 16418,11922 16422,11899 16427,11877 16435,11855 16444,11835 16455,11816 16469,11798 16483,11782 16499,11768 16517,11754 16536,11743 16556,11734 16578,11726 16600,11721 16623,11717 16647,11716"/></g><g/></g></g><g><desc>Drawing</desc><g><g style="stroke:rgb(0,0,0);fill:none"><path style="fill:none" d="M 15263,12639 L 15287,12640 15310,12644 15332,12649 15354,12657 15374,12666 15393,12677 15411,12691 15427,12705 15441,12721 15455,12739 15466,12758 15475,12778 15483,12800 15488,12822 15492,12845 15493,12869 15492,12893 15488,12916 15483,12938 15475,12960 15466,12980 15455,12999 15441,13017 15427,13033 15411,13047 15393,13061 15374,13072 15354,13081 15332,13089 15310,13094 15287,13098 15263,13099 15239,13098 15216,13094 15194,13089 15172,13081 15152,13072 15133,13061 15115,13047 15099,13033 15085,13017 15071,12999 15060,12980 15051,12960 15043,12938 15038,12916 15034,12893 15033,12869 15034,12845 15038,12822 15043,12800 15051,12778 15060,12758 15071,12739 15085,12721 15099,12705 15115,12691 15133,12677 15152,12666 15172,12657 15194,12649 15216,12644 15239,12640 15263,12639"/></g><g/></g></g><g><desc>Drawing</desc><g><g style="stroke:rgb(0,0,0);fill:none"><path style="fill:none" d="M 13417,11716 L 13441,11717 13464,11721 13486,11726 13508,11734 13528,11743 13547,11754 13565,11768 13581,11782 13595,11798 13609,11816 13620,11835 13629,11855 13637,11877 13642,11899 13646,11922 13647,11946 13646,11970 13642,11993 13637,12015 13629,12037 13620,12057 13609,12076 13595,12094 13581,12110 13565,12124 13547,12138 13528,12149 13508,12158 13486,12166 13464,12171 13441,12175 13417,12176 13393,12175 13370,12171 13348,12166 13326,12158 13306,12149 13287,12138 13269,12124 13253,12110 13239,12094 13225,12076 13214,12057 13205,12037 13197,12015 13192,11993 13188,11970 13187,11946 13188,11922 13192,11899 13197,11877 13205,11855 13214,11835 13225,11816 13239,11798 13253,11782 13269,11768 13287,11754 13306,11743 13326,11734 13348,11726 13370,11721 13393,11717 13417,11716"/></g><g/></g></g><g><desc>Drawing</desc><g><g style="stroke:rgb(0,0,0);fill:none"><path style="fill:none" d="M 16647,9409 L 16671,9410 16694,9414 16716,9419 16738,9427 16758,9436 16777,9447 16795,9461 16811,9475 16825,9491 16839,9509 16850,9528 16859,9548 16867,9570 16872,9592 16876,9615 16877,9639 16876,9663 16872,9686 16867,9708 16859,9730 16850,9750 16839,9769 16825,9787 16811,9803 16795,9817 16777,9831 16758,9842 16738,9851 16716,9859 16694,9864 16671,9868 16647,9869 16623,9868 16600,9864 16578,9859 16556,9851 16536,9842 16517,9831 16499,9817 16483,9803 16469,9787 16455,9769 16444,9750 16435,9730 16427,9708 16422,9686 16418,9663 16417,9639 16418,9615 16422,9592 16427,9570 16435,9548 16444,9528 16455,9509 16469,9491 16483,9475 16499,9461 16517,9447 16536,9436 16556,9427 16578,9419 16600,9414 16623,9410 16647,9409"/></g><g/></g></g><g><desc>Drawing</desc><g><g style="stroke:rgb(0,0,0);fill:none"><path style="fill:none" d="M 11112,11716 L 11136,11717 11160,11721 11182,11726 11203,11734 11224,11743 11243,11754 11260,11768 11277,11782 11291,11798 11304,11816 11316,11835 11325,11855 11333,11877 11338,11899 11342,11922 11343,11946 11342,11970 11338,11993 11333,12015 11325,12037 11316,12057 11304,12076 11291,12094 11277,12110 11260,12124 11243,12138 11224,12149 11203,12158 11182,12166 11160,12171 11136,12175 11112,12176 11088,12175 11064,12171 11042,12166 11021,12158 11000,12149 10981,12138 10964,12124 10947,12110 10933,12094 10920,12076 10908,12057 10899,12037 10891,12015 10886,11993 10882,11970 10881,11946 10882,11922 10886,11899 10891,11877 10899,11855 10908,11835 10920,11816 10933,11798 10947,11782 10964,11768 10981,11754 11000,11743 11021,11734 11042,11726 11064,11721 11088,11717 11112,11716"/></g><g/></g></g><g><desc>Drawing</desc><g><g style="stroke:rgb(0,0,0);fill:none"><path style="fill:none" d="M 12956,13100 L 12980,13101 13003,13105 13025,13110 13047,13118 13067,13127 13086,13138 13104,13152 13120,13166 13134,13182 13148,13200 13159,13219 13168,13239 13176,13261 13181,13283 13185,13306 13186,13330 13185,13354 13181,13377 13176,13399 13168,13421 13159,13441 13148,13460 13134,13478 13120,13494 13104,13508 13086,13522 13067,13533 13047,13542 13025,13550 13003,13555 12980,13559 12956,13560 12932,13559 12909,13555 12887,13550 12865,13542 12845,13533 12826,13522 12808,13508 12792,13494 12778,13478 12764,13460 12753,13441 12744,13421 12736,13399 12731,13377 12727,13354 12726,13330 12727,13306 12731,13283 12736,13261 12744,13239 12753,13219 12764,13200 12778,13182 12792,13166 12808,13152 12826,13138 12845,13127 12865,13118 12887,13110 12909,13105 12932,13101 12956,13100"/></g><g/></g></g><g><desc>Drawing</desc><g><g style="stroke:rgb(0,0,0);fill:none"><path style="fill:none" d="M 17108,13562 L 17132,13563 17155,13567 17177,13572 17199,13580 17219,13589 17238,13601 17256,13614 17272,13628 17286,13645 17300,13662 17311,13681 17320,13702 17328,13723 17333,13745 17337,13769 17338,13793 17337,13817 17333,13841 17328,13863 17320,13884 17311,13905 17300,13924 17286,13941 17272,13958 17256,13972 17238,13985 17219,13997 17199,14006 17177,14014 17155,14019 17132,14023 17108,14024 17084,14023 17061,14019 17039,14014 17017,14006 16997,13997 16978,13985 16960,13972 16944,13958 16930,13941 16916,13924 16905,13905 16896,13884 16888,13863 16883,13841 16879,13817 16878,13793 16879,13769 16883,13745 16888,13723 16896,13702 16905,13681 16916,13662 16930,13645 16944,13628 16960,13614 16978,13601 16997,13589 17017,13580 17039,13572 17061,13567 17084,13563 17108,13562"/></g><g/></g></g><g><desc>Drawing</desc><g><g style="stroke:rgb(0,0,0);fill:none"><path style="fill:none" d="M 13880,14485 L 13904,14486 13928,14490 13950,14495 13971,14503 13992,14512 14011,14524 14028,14537 14045,14551 14059,14568 14072,14585 14084,14604 14093,14625 14101,14646 14106,14668 14110,14692 14111,14716 14110,14740 14106,14764 14101,14786 14093,14807 14084,14828 14072,14847 14059,14864 14045,14881 14028,14895 14011,14908 13992,14920 13971,14929 13950,14937 13928,14942 13904,14946 13880,14947 13856,14946 13832,14942 13810,14937 13789,14929 13768,14920 13749,14908 13732,14895 13715,14881 13701,14864 13688,14847 13676,14828 13667,14807 13659,14786 13654,14764 13650,14740 13649,14716 13650,14692 13654,14668 13659,14646 13667,14625 13676,14604 13688,14585 13701,14568 13715,14551 13732,14537 13749,14524 13768,14512 13789,14503 13810,14495 13832,14490 13856,14486 13880,14485"/></g><g/></g></g><g><desc>Drawing</desc><g><g style="stroke:rgb(0,0,0);fill:none"><path style="fill:none" d="M 10649,14023 L 10673,14024 10696,14028 10718,14033 10740,14041 10760,14050 10779,14061 10797,14075 10813,14089 10827,14105 10841,14123 10852,14142 10861,14162 10869,14184 10874,14206 10878,14229 10879,14253 10878,14277 10874,14300 10869,14322 10861,14344 10852,14364 10841,14383 10827,14401 10813,14417 10797,14431 10779,14445 10760,14456 10740,14465 10718,14473 10696,14478 10673,14482 10649,14483 10625,14482 10602,14478 10580,14473 10558,14465 10538,14456 10519,14445 10501,14431 10485,14417 10471,14401 10457,14383 10446,14364 10437,14344 10429,14322 10424,14300 10420,14277 10419,14253 10420,14229 10424,14206 10429,14184 10437,14162 10446,14142 10457,14123 10471,14105 10485,14089 10501,14075 10519,14061 10538,14050 10558,14041 10580,14033 10602,14028 10625,14024 10649,14023"/></g><g/></g></g><g><desc>Drawing</desc><g><g style="stroke:rgb(0,0,0);fill:none"><path style="fill:none" d="M 9265,12178 L 9289,12179 9312,12183 9334,12188 9356,12196 9376,12205 9395,12217 9413,12230 9429,12244 9443,12261 9457,12278 9468,12297 9477,12318 9485,12339 9490,12361 9494,12385 9495,12409 9494,12433 9490,12457 9485,12479 9477,12500 9468,12521 9457,12540 9443,12557 9429,12574 9413,12588 9395,12601 9376,12613 9356,12622 9334,12630 9312,12635 9289,12639 9265,12640 9241,12639 9218,12635 9196,12630 9174,12622 9154,12613 9135,12601 9117,12588 9101,12574 9087,12557 9073,12540 9062,12521 9053,12500 9045,12479 9040,12457 9036,12433 9035,12409 9036,12385 9040,12361 9045,12339 9053,12318 9062,12297 9073,12278 9087,12261 9101,12244 9117,12230 9135,12217 9154,12205 9174,12196 9196,12188 9218,12183 9241,12179 9265,12178"/></g><g/></g></g><g><desc>Drawing</desc><g><g style="stroke:rgb(0,0,0);fill:none"><path style="fill:none" d="M 8805,14023 L 8829,14024 8853,14028 8875,14033 8896,14041 8917,14050 8936,14061 8953,14075 8970,14089 8984,14105 8997,14123 9009,14142 9018,14162 9026,14184 9031,14206 9035,14229 9036,14253 9035,14277 9031,14300 9026,14322 9018,14344 9009,14364 8997,14383 8984,14401 8970,14417 8953,14431 8936,14445 8917,14456 8896,14465 8875,14473 8853,14478 8829,14482 8805,14483 8781,14482 8757,14478 8735,14473 8714,14465 8693,14456 8674,14445 8657,14431 8640,14417 8626,14401 8613,14383 8601,14364 8592,14344 8584,14322 8579,14300 8575,14277 8574,14253 8575,14229 8579,14206 8584,14184 8592,14162 8601,14142 8613,14123 8626,14105 8640,14089 8657,14075 8674,14061 8693,14050 8714,14041 8735,14033 8757,14028 8781,14024 8805,14023"/></g><g/></g></g><g><desc>Drawing</desc><g><g style="stroke:rgb(0,0,0);fill:none"><path style="fill:none" d="M 7882,12639 L 7906,12640 7930,12644 7952,12649 7973,12657 7994,12666 8013,12677 8030,12691 8047,12705 8061,12721 8074,12739 8086,12758 8095,12778 8103,12800 8108,12822 8112,12845 8113,12869 8112,12893 8108,12916 8103,12938 8095,12960 8086,12980 8074,12999 8061,13017 8047,13033 8030,13047 8013,13061 7994,13072 7973,13081 7952,13089 7930,13094 7906,13098 7882,13099 7858,13098 7834,13094 7812,13089 7791,13081 7770,13072 7751,13061 7734,13047 7717,13033 7703,13017 7690,12999 7678,12980 7669,12960 7661,12938 7656,12916 7652,12893 7651,12869 7652,12845 7656,12822 7661,12800 7669,12778 7678,12758 7690,12739 7703,12721 7717,12705 7734,12691 7751,12677 7770,12666 7791,12657 7812,12649 7834,12644 7858,12640 7882,12639"/></g><g/></g></g><g><desc>Drawing</desc><g><g style="stroke:rgb(0,0,0);fill:none"><path style="fill:none" d="M 12033,14946 L 12057,14947 12080,14951 12102,14956 12124,14964 12144,14973 12163,14984 12181,14998 12197,15012 12211,15028 12225,15046 12236,15065 12245,15085 12253,15107 12258,15129 12262,15152 12263,15176 12262,15200 12258,15223 12253,15245 12245,15267 12236,15287 12225,15306 12211,15324 12197,15340 12181,15354 12163,15368 12144,15379 12124,15388 12102,15396 12080,15401 12057,15405 12033,15406 12009,15405 11986,15401 11964,15396 11942,15388 11922,15379 11903,15368 11885,15354 11869,15340 11855,15324 11841,15306 11830,15287 11821,15267 11813,15245 11808,15223 11804,15200 11803,15176 11804,15152 11808,15129 11813,15107 11821,15085 11830,15065 11841,15046 11855,15028 11869,15012 11885,14998 11903,14984 11922,14973 11942,14964 11964,14956 11986,14951 12009,14947 12033,14946"/></g><g/></g></g><g><desc>Drawing</desc><g><g style="stroke:rgb(0,0,0);fill:none"><path style="fill:none" d="M 11648,2542 C 10487,2716 11011,2635 9773,2951 9614,3123 9149,3718 9041,3627 8434,3051 9115,3152 9077,2976 9039,2800 8469,2979 8805,2363 8902,2183 9206,2449 9558,2591 10503,2445 10125,2483 11336,2257"/></g><g/></g></g><g><desc>Drawing</desc><g><g style="stroke:rgb(0,0,0);fill:none"><path style="fill:none" d="M 12690,2000 C 13094,1925 13707,1816 14415,1698 14647,1419 15206,1196 15251,1424 15436,2072 15158,1802 15140,2029 15122,2256 15970,2028 15453,2619 15293,2884 14368,2330 14441,2386 14025,2335 12941,2382 12553,2440"/></g><g/></g></g><g><desc>Drawing</desc><g><g style="stroke:rgb(0,0,0);fill:none"><path style="fill:none" d="M 12182,2802 L 12097,2796 12017,2778 11942,2749 11869,2712 11801,2668 11735,2618 11610,2507 11378,2282 11321,2234 11264,2193 11206,2159 11147,2135 11340,2103 11533,2084 11919,2068 12304,2051 12497,2032 12690,2000 12673,2020 12658,2042 12633,2090 12614,2143 12600,2199 12553,2440 12537,2500 12515,2557 12486,2612 12468,2637 12448,2662 12426,2685 12401,2707 12373,2727 12342,2746 12269,2778 12182,2802"/></g><g/></g></g><g><desc>Drawing</desc><g><g style="stroke:rgb(0,0,0);fill:none"><path style="fill:none" d="M 13018,6722 L 13045,6723 13074,6730 13099,6739 13124,6752 13148,6769 13170,6788 13191,6809 13212,6834 13228,6863 13244,6893 13256,6925 13269,6958 13277,6997 13283,7035 13288,7074 13288,7116 13288,7157 13283,7198 13277,7237 13269,7273 13256,7307 13244,7340 13228,7370 13212,7397 13191,7424 13170,7446 13148,7465 13124,7481 13099,7494 13074,7505 13045,7510 13018,7512 12989,7510 12962,7505 12935,7494 12910,7481 12888,7465 12866,7446 12845,7424 12826,7397 12808,7370 12794,7340 12780,7307 12769,7273 12759,7237 12754,7198 12750,7157 12748,7116 12750,7074 12754,7035 12759,6997 12769,6958 12780,6925 12794,6893 12808,6863 12826,6834 12845,6809 12866,6788 12888,6769 12910,6752 12935,6739 12962,6730 12989,6723 13018,6722"/></g><g/></g></g><g><desc>Drawing</desc><g><g style="stroke:rgb(0,0,0);fill:none"><path style="fill:none" d="M 13018,6576 L 13055,6579 13094,6587 13129,6600 13164,6618 13196,6642 13227,6668 13255,6696 13284,6731 13305,6770 13327,6811 13344,6855 13362,6900 13373,6952 13381,7004 13388,7059 13388,7115 13388,7172 13381,7228 13373,7280 13362,7330 13344,7376 13327,7422 13305,7463 13284,7500 13255,7537 13227,7567 13196,7593 13164,7615 13129,7632 13094,7648 13055,7654 13018,7656 12979,7654 12942,7648 12905,7632 12870,7615 12840,7593 12809,7567 12781,7537 12755,7500 12731,7463 12711,7422 12692,7376 12676,7330 12663,7280 12657,7228 12650,7172 12648,7115 12650,7059 12657,7004 12663,6952 12676,6900 12692,6855 12711,6811 12731,6770 12755,6731 12781,6696 12809,6668 12840,6642 12870,6618 12905,6600 12942,6587 12979,6579 13018,6576"/></g><g/></g></g><g><desc>Drawing</desc><g><g style="stroke:rgb(0,0,0);fill:none"><path style="fill:none" d="M 11818,6767 L 11845,6768 11874,6775 11899,6784 11924,6797 11948,6814 11970,6834 11991,6854 12012,6880 12028,6908 12044,6938 12056,6970 12069,7004 12077,7042 12083,7080 12088,7120 12088,7161 12088,7202 12083,7244 12077,7282 12069,7318 12056,7352 12044,7385 12028,7415 12012,7442 11991,7469 11970,7492 11948,7511 11924,7527 11899,7539 11874,7550 11845,7555 11818,7557 11789,7555 11762,7550 11735,7539 11710,7527 11688,7511 11666,7492 11645,7469 11626,7442 11608,7415 11594,7385 11580,7352 11569,7318 11559,7282 11554,7244 11550,7202 11548,7161 11550,7120 11554,7080 11559,7042 11569,7004 11580,6970 11594,6938 11608,6908 11626,6880 11645,6854 11666,6834 11688,6814 11710,6797 11735,6784 11762,6775 11789,6768 11818,6767"/></g><g/></g></g><g><desc>Drawing</desc><g><g style="stroke:rgb(0,0,0);fill:none"><path style="fill:none" d="M 11818,6622 L 11855,6624 11894,6633 11929,6646 11964,6663 11996,6687 12027,6713 12055,6741 12084,6776 12105,6815 12127,6856 12144,6900 12162,6946 12173,6998 12181,7050 12188,7104 12188,7161 12188,7217 12181,7274 12173,7326 12162,7376 12144,7421 12127,7467 12105,7508 12084,7545 12055,7582 12027,7613 11996,7639 11964,7660 11929,7678 11894,7693 11855,7700 11818,7702 11779,7700 11742,7693 11705,7678 11670,7660 11640,7639 11609,7613 11581,7582 11555,7545 11531,7508 11511,7467 11492,7421 11476,7376 11463,7326 11457,7274 11450,7217 11448,7161 11450,7104 11457,7050 11463,6998 11476,6946 11492,6900 11511,6856 11531,6815 11555,6776 11581,6741 11609,6713 11640,6687 11670,6663 11705,6646 11742,6633 11779,6624 11818,6622"/></g><g/></g></g></g></svg>