<?xml version="1.0" encoding="UTF-8"?>

<svg version="1.2" baseProfile="tiny" viewBox="0 0 21590 27940" preserveAspectRatio="xMidYMid" fill-rule="evenodd" clip-path="url(#presentation_clip_path)" stroke-width="28.222" stroke-linejoin="round" xmlns="http://www.w3.org/2000/svg" xmlns:xlink="http://www.w3.org/1999/xlink" xmlns:draw="urn:oasis:names:tc:opendocument:xmlns:drawing:1.0" xmlns:presentation="urn:oasis:names:tc:opendocument:xmlns:presentation:1.0" xmlns:smil="urn:oasis:names:tc:opendocument:xmlns:smil-compatible:1.0" xmlns:anim="urn:oasis:names:tc:opendocument:xmlns:animation:1.0" xml:space="preserve">
 <defs>
  <clipPath id="presentation_clip_path" clipPathUnits="userSpaceOnUse">
   <rect x="0" y="0" width="21590" height="27940"/>
  </clipPath>
 </defs>
 <g id="id2" class="Master_Slide" clip-path="url(#presentation_clip_path)">
  <g id="bg-id2" visibility="visible" class="Background">
   <rect fill="none" stroke="none" x="0" y="0" width="21590" height="27940"/>
  </g>
  <g id="bo-id2" visibility="visible" class="BackgroundObjects"/>
 </g>
 <g id="id1" class="Slide" visibility="visible" clip-path="url(#presentation_clip_path)">
  <g class="com.sun.star.drawing.CustomShape">
   <g>
    <path fill="rgb(192,192,192)" stroke="none" d="M 7914,16852 L 6374,16852 6374,13772 9454,13772 9454,16852 7914,16852 Z"/>
    <rect fill="none" stroke="none" x="6374" y="13772" width="3081" height="3081"/>
    <rect fill="none" stroke="none" x="6374" y="13772" width="3081" height="3081"/>
   </g>
  </g>
  <g class="com.sun.star.drawing.PolyPolygonShape">
   <g>
    <path fill="none" stroke="rgb(0,0,0)" d="M 8273,16488 L 8890,16488 8890,16329 8805,16329 8743,16327 8716,16325 8693,16321 8673,16315 8656,16308 8648,16304 8641,16299 8635,16293 8629,16287 8623,16280 8618,16273 8610,16256 8604,16236 8599,16213 8596,16187 8593,16157 8592,16085 8592,14916 7955,14916 7955,15079 8128,15079 8170,15080 8188,15082 8203,15085 8217,15089 8229,15094 8234,15097 8239,15101 8244,15105 8248,15109 8251,15114 8255,15119 8260,15131 8265,15145 8268,15160 8271,15179 8272,15199 8273,15248 8273,15665 8272,15734 8269,15796 8264,15852 8257,15904 8247,15951 8235,15996 8220,16039 8202,16081 8188,16109 8173,16134 8156,16159 8137,16181 8118,16202 8097,16222 8075,16240 8052,16256 8027,16270 8002,16283 7975,16293 7948,16302 7920,16309 7890,16314 7861,16317 7830,16318 7791,16317 7755,16312 7737,16308 7720,16303 7704,16298 7688,16292 7673,16285 7659,16277 7646,16269 7634,16259 7622,16249 7611,16239 7601,16227 7593,16215 7578,16192 7572,16181 7566,16170 7561,16159 7557,16147 7554,16134 7551,16120 7546,16087 7544,16047 7542,15935 7542,14916 6949,14916 6949,15079 7078,15079 7120,15080 7138,15082 7153,15085 7167,15089 7179,15094 7184,15097 7189,15101 7194,15105 7198,15109 7201,15114 7205,15119 7210,15131 7215,15145 7218,15160 7221,15179 7222,15199 7223,15248 7223,15980 7224,16040 7226,16093 7230,16139 7237,16180 7245,16216 7250,16232 7256,16248 7263,16264 7270,16279 7288,16308 7306,16334 7325,16357 7347,16380 7369,16401 7393,16420 7419,16438 7446,16454 7475,16469 7504,16482 7535,16493 7567,16503 7601,16511 7635,16517 7671,16521 7745,16525 7786,16524 7826,16521 7864,16515 7901,16507 7937,16497 7971,16485 8005,16470 8037,16452 8069,16432 8100,16410 8130,16384 8159,16356 8188,16326 8217,16292 8273,16217 8273,16488"/>
   </g>
  </g>
 </g>
</svg>