<?xml version="1.0" encoding="UTF-8"?>

<svg version="1.2" baseProfile="tiny" viewBox="0 0 21590 27940" preserveAspectRatio="xMidYMid" fill-rule="evenodd" clip-path="url(#presentation_clip_path)" stroke-width="28.222" stroke-linejoin="round" xmlns="http://www.w3.org/2000/svg" xmlns:xlink="http://www.w3.org/1999/xlink" xmlns:draw="urn:oasis:names:tc:opendocument:xmlns:drawing:1.0" xmlns:presentation="urn:oasis:names:tc:opendocument:xmlns:presentation:1.0" xmlns:smil="urn:oasis:names:tc:opendocument:xmlns:smil-compatible:1.0" xmlns:anim="urn:oasis:names:tc:opendocument:xmlns:animation:1.0" xml:space="preserve">
 <defs>
  <clipPath id="presentation_clip_path" clipPathUnits="userSpaceOnUse">
   <rect x="0" y="0" width="21590" height="27940"/>
  </clipPath>
 </defs>
 <g id="id2" class="Master_Slide" clip-path="url(#presentation_clip_path)">
  <g id="bg-id2" visibility="visible" class="Background">
   <rect fill="none" stroke="none" x="0" y="0" width="21590" height="27940"/>
  </g>
  <g id="bo-id2" visibility="visible" class="BackgroundObjects"/>
 </g>
 <g id="id1" class="Slide" visibility="visible" clip-path="url(#presentation_clip_path)">
  <g class="com.sun.star.drawing.CustomShape">
   <g>
    <path fill="rgb(192,192,192)" stroke="none" d="M 7790,16852 L 6250,16852 6250,13772 9330,13772 9330,16852 7790,16852 Z"/>
    <rect fill="none" stroke="none" x="6250" y="13772" width="3081" height="3081"/>
    <rect fill="none" stroke="none" x="6250" y="13772" width="3081" height="3081"/>
   </g>
  </g>
  <g class="com.sun.star.drawing.PolyPolygonShape">
   <g>
    <path fill="none" stroke="rgb(0,0,0)" d="M 7926,15610 L 8312,15160 8342,15127 8373,15098 8405,15073 8420,15063 8436,15053 8452,15045 8468,15038 8484,15032 8500,15027 8517,15023 8533,15020 8549,15018 8566,15018 8596,15018 8596,14896 7895,14896 7895,15018 7959,15018 7995,15019 8026,15023 8040,15025 8052,15029 8064,15033 8074,15037 8083,15042 8090,15048 8097,15054 8102,15061 8107,15068 8109,15075 8111,15084 8112,15092 8112,15099 8111,15106 8109,15113 8107,15121 8102,15137 8095,15154 8085,15172 8073,15191 8060,15211 8044,15231 7831,15485 7570,15153 7563,15144 7556,15134 7550,15125 7545,15115 7541,15105 7539,15096 7537,15091 7537,15087 7536,15083 7536,15079 7537,15071 7538,15063 7539,15060 7541,15057 7543,15054 7545,15051 7547,15048 7549,15045 7556,15040 7563,15036 7571,15032 7581,15028 7592,15025 7604,15023 7618,15021 7649,15019 7685,15018 7733,15018 7733,14896 6930,14896 6930,15018 6973,15023 6993,15026 7011,15031 7028,15036 7044,15043 7060,15050 7075,15060 7091,15070 7106,15083 7137,15113 7172,15152 7211,15201 7624,15722 7235,16176 7198,16216 7161,16251 7122,16281 7083,16306 7064,16317 7044,16326 7025,16334 7006,16340 6986,16345 6967,16349 6948,16351 6930,16352 6909,16352 6909,16474 7624,16474 7624,16352 7573,16352 7525,16351 7508,16350 7494,16349 7482,16347 7472,16345 7464,16342 7455,16339 7450,16336 7445,16333 7440,16329 7436,16325 7432,16321 7428,16316 7424,16311 7421,16306 7418,16301 7415,16295 7413,16289 7411,16284 7409,16278 7408,16272 7408,16266 7407,16261 7408,16251 7409,16242 7411,16232 7415,16223 7418,16213 7423,16204 7426,16200 7428,16196 7431,16193 7434,16190 7719,15847 7976,16190 7985,16203 7993,16216 8001,16230 8007,16244 8013,16257 8017,16270 8018,16276 8020,16281 8020,16286 8020,16291 8020,16299 8019,16303 8018,16306 8017,16310 8015,16313 8013,16316 8010,16319 8008,16322 8005,16325 7998,16330 7989,16334 7979,16338 7967,16342 7954,16344 7923,16349 7886,16351 7841,16352 7817,16352 7817,16474 8671,16474 8671,16352 8647,16352 8625,16352 8604,16350 8583,16347 8563,16343 8544,16337 8525,16331 8506,16323 8488,16314 8470,16303 8453,16291 8436,16277 8419,16262 8385,16227 8352,16186 7926,15610"/>
   </g>
  </g>
 </g>
</svg>